<svg width="18" height="19" viewBox="0 0 18 19" fill="none" xmlns="http://www.w3.org/2000/svg">
<g clip-path="url(#clip0_1_41)">
<path d="M2.28481 8.1008L1.35121 16.5008L2.54401 16.634L3.47761 8.2328L2.28481 8.1008ZM3.14041 18.5H14.8596V17.3H3.14041V18.5ZM16.6488 16.5008L15.7152 8.1008L14.5224 8.2328L15.456 16.634L16.6488 16.5008ZM13.9248 6.5H4.07521V7.7H13.9272V6.5H13.9248ZM15.7152 8.1008C15.6662 7.66058 15.4566 7.25389 15.1265 6.95854C14.7964 6.6632 14.3677 6.49994 13.9248 6.5L13.926 7.7C14.0737 7.69999 14.2162 7.75447 14.3263 7.853C14.4363 7.95153 14.5062 8.08719 14.5224 8.234L15.7152 8.1008ZM14.8596 18.5C15.1127 18.4999 15.3629 18.4464 15.594 18.343C15.825 18.2396 16.0316 18.0886 16.2003 17.8999C16.3691 17.7113 16.4961 17.4892 16.5732 17.2481C16.6503 17.007 16.6768 16.7524 16.6488 16.5008L15.456 16.634C15.4655 16.7179 15.4571 16.8017 15.4314 16.8822C15.4058 16.9627 15.3634 17.0369 15.3071 17.0999C15.2508 17.1628 15.1818 17.2132 15.1047 17.2477C15.0276 17.2822 14.9441 17.3 14.8596 17.3V18.5ZM1.35121 16.5008C1.32318 16.7525 1.34857 17.0072 1.42571 17.2484C1.50285 17.4895 1.63 17.7117 1.79886 17.9004C1.96772 18.0891 2.17449 18.24 2.40566 18.3433C2.63683 18.4467 2.8872 18.5 3.14041 18.5V17.3C3.05604 17.3 2.97262 17.2822 2.8956 17.2478C2.81857 17.2134 2.74967 17.1631 2.69339 17.1003C2.63711 17.0374 2.59471 16.9634 2.56897 16.8831C2.54323 16.8027 2.53473 16.7179 2.54401 16.634L1.35121 16.502V16.5008ZM3.47761 8.2328C3.49413 8.0862 3.56408 7.95083 3.6741 7.85255C3.78411 7.75427 3.92768 7.69996 4.07521 7.7V6.5C3.63247 6.50023 3.20415 6.66362 2.8743 6.95894C2.54445 7.25426 2.3338 7.66078 2.28481 8.1008L3.47761 8.2328ZM6.00001 5.3V4.7H4.80001V5.3H6.00001ZM12 4.7V5.3H13.2V4.7H12ZM9 1.7C9.79565 1.7 10.5587 2.01607 11.1213 2.57868C11.6839 3.14129 12 3.90435 12 4.7H13.2C13.2 3.58609 12.7575 2.5178 11.9699 1.73015C11.1822 0.942499 10.1139 0.5 9 0.5V1.7ZM6.00001 4.7C6.00001 3.90435 6.31608 3.14129 6.87868 2.57868C7.44129 2.01607 8.20436 1.7 9 1.7V0.5C7.8861 0.5 6.81781 0.942499 6.03016 1.73015C5.2425 2.5178 4.80001 3.58609 4.80001 4.7H6.00001Z" fill="black"/>
</g>
<defs>
<clipPath id="clip0_1_41">
<rect width="18" height="18" fill="white" transform="translate(0 0.5)"/>
</clipPath>
</defs>
</svg>
