<svg width="292" height="100" viewBox="0 0 292 100" fill="none" xmlns="http://www.w3.org/2000/svg">
<path d="M32.4432 12.5909H40.1818L50.5455 37.8864H50.9545L61.3182 12.5909H69.0568V47.5H62.9886V23.517H62.6648L53.017 47.3977H48.483L38.8352 23.4659H38.5114V47.5H32.4432V12.5909ZM75.9432 47.5V12.5909H98.6477V17.892H82.267V27.3693H97.4716V32.6705H82.267V42.1989H98.7841V47.5H75.9432ZM118.872 12.5909H125.145V37.1364C125.134 39.3864 124.656 41.3239 123.713 42.9489C122.77 44.5625 121.452 45.8068 119.759 46.6818C118.077 47.5455 116.116 47.9773 113.878 47.9773C111.832 47.9773 109.991 47.6136 108.355 46.8864C106.73 46.1477 105.44 45.0568 104.486 43.6136C103.531 42.1705 103.054 40.375 103.054 38.2273H109.344C109.355 39.1705 109.56 39.983 109.957 40.6648C110.366 41.3466 110.929 41.8693 111.645 42.233C112.361 42.5966 113.185 42.7784 114.116 42.7784C115.128 42.7784 115.986 42.5682 116.69 42.1477C117.395 41.7159 117.929 41.0795 118.293 40.2386C118.668 39.3977 118.861 38.3636 118.872 37.1364V12.5909ZM138.33 12.5909V47.5H132.006V12.5909H138.33ZM152.524 47.5L142.672 12.5909H149.473L155.763 38.2443H156.087L162.803 12.5909H168.99L175.723 38.2614H176.03L182.32 12.5909H189.121L179.268 47.5H173.03L166.041 23.0057H165.768L158.763 47.5H152.524ZM222.824 30.0455C222.824 33.8068 222.119 37.0284 220.71 39.7102C219.313 42.3807 217.403 44.4261 214.983 45.8466C212.574 47.267 209.841 47.9773 206.784 47.9773C203.727 47.9773 200.989 47.267 198.568 45.8466C196.159 44.4148 194.25 42.3636 192.841 39.6932C191.443 37.0114 190.744 33.7955 190.744 30.0455C190.744 26.2841 191.443 23.0682 192.841 20.3977C194.25 17.7159 196.159 15.6648 198.568 14.2443C200.989 12.8239 203.727 12.1136 206.784 12.1136C209.841 12.1136 212.574 12.8239 214.983 14.2443C217.403 15.6648 219.313 17.7159 220.71 20.3977C222.119 23.0682 222.824 26.2841 222.824 30.0455ZM216.466 30.0455C216.466 27.3977 216.051 25.1648 215.222 23.3466C214.403 21.517 213.267 20.1364 211.812 19.2045C210.358 18.2614 208.682 17.7898 206.784 17.7898C204.886 17.7898 203.21 18.2614 201.756 19.2045C200.301 20.1364 199.159 21.517 198.33 23.3466C197.511 25.1648 197.102 27.3977 197.102 30.0455C197.102 32.6932 197.511 34.9318 198.33 36.7614C199.159 38.5795 200.301 39.9602 201.756 40.9034C203.21 41.8352 204.886 42.3011 206.784 42.3011C208.682 42.3011 210.358 41.8352 211.812 40.9034C213.267 39.9602 214.403 38.5795 215.222 36.7614C216.051 34.9318 216.466 32.6932 216.466 30.0455ZM259.996 30.0455C259.996 33.8068 259.291 37.0284 257.882 39.7102C256.484 42.3807 254.575 44.4261 252.155 45.8466C249.746 47.267 247.013 47.9773 243.956 47.9773C240.899 47.9773 238.161 47.267 235.74 45.8466C233.331 44.4148 231.422 42.3636 230.013 39.6932C228.615 37.0114 227.916 33.7955 227.916 30.0455C227.916 26.2841 228.615 23.0682 230.013 20.3977C231.422 17.7159 233.331 15.6648 235.74 14.2443C238.161 12.8239 240.899 12.1136 243.956 12.1136C247.013 12.1136 249.746 12.8239 252.155 14.2443C254.575 15.6648 256.484 17.7159 257.882 20.3977C259.291 23.0682 259.996 26.2841 259.996 30.0455ZM253.638 30.0455C253.638 27.3977 253.223 25.1648 252.393 23.3466C251.575 21.517 250.439 20.1364 248.984 19.2045C247.53 18.2614 245.854 17.7898 243.956 17.7898C242.058 17.7898 240.382 18.2614 238.928 19.2045C237.473 20.1364 236.331 21.517 235.501 23.3466C234.683 25.1648 234.274 27.3977 234.274 30.0455C234.274 32.6932 234.683 34.9318 235.501 36.7614C236.331 38.5795 237.473 39.9602 238.928 40.9034C240.382 41.8352 242.058 42.3011 243.956 42.3011C245.854 42.3011 247.53 41.8352 248.984 40.9034C250.439 39.9602 251.575 38.5795 252.393 36.7614C253.223 34.9318 253.638 32.6932 253.638 30.0455Z" fill="black"/>
<path d="M104.732 66.884H118.044V85.732H104.732V66.884ZM115.452 69.028H107.324V83.588H115.452V69.028ZM124.092 64.036H126.748V93.028H124.092V64.036ZM140.186 68.196H142.33V72.9C142.33 79.012 138.65 85.156 134.042 87.428L132.506 85.316C136.698 83.332 140.186 77.892 140.186 72.9V68.196ZM140.698 68.196H142.842V72.9C142.842 77.796 146.33 82.788 150.586 84.612L149.082 86.724C144.41 84.548 140.698 78.916 140.698 72.9V68.196ZM133.466 67.012H149.626V69.252H133.466V67.012ZM153.53 64.068H156.186V92.996H153.53V64.068ZM161.943 80.644H188.183V82.82H161.943V80.644ZM173.655 81.988H176.279V92.996H173.655V81.988ZM174.999 65.22C181.047 65.22 185.111 67.684 185.111 71.556C185.111 75.428 181.047 77.892 174.999 77.892C168.983 77.892 164.887 75.428 164.887 71.556C164.887 67.684 168.983 65.22 174.999 65.22ZM174.999 67.364C170.583 67.364 167.575 68.996 167.575 71.556C167.575 74.116 170.583 75.748 174.999 75.748C179.415 75.748 182.391 74.116 182.391 71.556C182.391 68.996 179.415 67.364 174.999 67.364Z" fill="black"/>
</svg>
