<svg width="95" height="40" viewBox="0 0 95 40" fill="none" xmlns="http://www.w3.org/2000/svg">
<path d="M27.414 26.668H33.238V34.914H27.414V26.668ZM32.104 27.606H28.548V33.976H32.104V27.606ZM35.884 25.422H37.046V38.106H35.884V25.422ZM42.9249 27.242H43.8629V29.3C43.8629 31.974 42.2529 34.662 40.2369 35.656L39.5649 34.732C41.3989 33.864 42.9249 31.484 42.9249 29.3V27.242ZM43.1489 27.242H44.0869V29.3C44.0869 31.442 45.6129 33.626 47.4749 34.424L46.8169 35.348C44.7729 34.396 43.1489 31.932 43.1489 29.3V27.242ZM39.9849 26.724H47.0549V27.704H39.9849V26.724ZM48.7629 25.436H49.9249V38.092H48.7629V25.436ZM52.4438 32.688H63.9238V33.64H52.4438V32.688ZM57.5678 33.276H58.7158V38.092H57.5678V33.276ZM58.1558 25.94C60.8018 25.94 62.5798 27.018 62.5798 28.712C62.5798 30.406 60.8018 31.484 58.1558 31.484C55.5238 31.484 53.7318 30.406 53.7318 28.712C53.7318 27.018 55.5238 25.94 58.1558 25.94ZM58.1558 26.878C56.2238 26.878 54.9078 27.592 54.9078 28.712C54.9078 29.832 56.2238 30.546 58.1558 30.546C60.0878 30.546 61.3898 29.832 61.3898 28.712C61.3898 27.592 60.0878 26.878 58.1558 26.878Z" fill="black"/>
<path d="M1.76136 4.45455H3.86364L8.80682 16.5284H8.97727L13.9205 4.45455H16.0227V19H14.375V7.94886H14.233L9.6875 19H8.09659L3.55114 7.94886H3.40909V19H1.76136V4.45455ZM19.5543 19V4.45455H28.3327V6.01705H21.3157V10.9318H27.8782V12.4943H21.3157V17.4375H28.4464V19H19.5543ZM37.0756 4.45455H38.837V14.8523C38.837 15.7803 38.6665 16.5687 38.3256 17.2173C37.9847 17.866 37.5041 18.3584 36.8839 18.6946C36.2636 19.0308 35.5321 19.1989 34.6893 19.1989C33.8938 19.1989 33.186 19.0545 32.5657 18.7656C31.9454 18.4721 31.4577 18.0554 31.1026 17.5156C30.7475 16.9759 30.57 16.3343 30.57 15.5909H32.3029C32.3029 16.0028 32.4047 16.3627 32.6083 16.6705C32.8166 16.9735 33.1007 17.2102 33.4606 17.3807C33.8204 17.5511 34.23 17.6364 34.6893 17.6364C35.1959 17.6364 35.6268 17.5298 35.9819 17.3168C36.337 17.1037 36.6069 16.7912 36.7915 16.3793C36.9809 15.9626 37.0756 15.4536 37.0756 14.8523V4.45455ZM44.1282 4.45455V19H42.3668V4.45455H44.1282ZM50.3018 19L46.3246 4.45455H48.1143L51.1541 16.3011H51.2962L54.3928 4.45455H56.3814L59.478 16.3011H59.62L62.6598 4.45455H64.4496L60.4723 19H58.6541L55.4439 7.40909H55.3303L52.12 19H50.3018ZM78.2333 11.7273C78.2333 13.2614 77.9563 14.5871 77.4023 15.7045C76.8484 16.822 76.0884 17.6837 75.1225 18.2898C74.1566 18.8958 73.0534 19.1989 71.8129 19.1989C70.5723 19.1989 69.4691 18.8958 68.5032 18.2898C67.5373 17.6837 66.7773 16.822 66.2234 15.7045C65.6694 14.5871 65.3924 13.2614 65.3924 11.7273C65.3924 10.1932 65.6694 8.86742 66.2234 7.75C66.7773 6.63258 67.5373 5.77083 68.5032 5.16477C69.4691 4.55871 70.5723 4.25568 71.8129 4.25568C73.0534 4.25568 74.1566 4.55871 75.1225 5.16477C76.0884 5.77083 76.8484 6.63258 77.4023 7.75C77.9563 8.86742 78.2333 10.1932 78.2333 11.7273ZM76.5288 11.7273C76.5288 10.4678 76.3181 9.40483 75.8967 8.53835C75.48 7.67188 74.9142 7.0161 74.1992 6.57102C73.489 6.12595 72.6935 5.90341 71.8129 5.90341C70.9322 5.90341 70.1344 6.12595 69.4194 6.57102C68.7092 7.0161 68.1433 7.67188 67.7219 8.53835C67.3053 9.40483 67.0969 10.4678 67.0969 11.7273C67.0969 12.9867 67.3053 14.0497 67.7219 14.9162C68.1433 15.7827 68.7092 16.4384 69.4194 16.8835C70.1344 17.3286 70.9322 17.5511 71.8129 17.5511C72.6935 17.5511 73.489 17.3286 74.1992 16.8835C74.9142 16.4384 75.48 15.7827 75.8967 14.9162C76.3181 14.0497 76.5288 12.9867 76.5288 11.7273ZM93.4677 11.7273C93.4677 13.2614 93.1907 14.5871 92.6367 15.7045C92.0827 16.822 91.3228 17.6837 90.3569 18.2898C89.391 18.8958 88.2878 19.1989 87.0472 19.1989C85.8067 19.1989 84.7035 18.8958 83.7376 18.2898C82.7717 17.6837 82.0117 16.822 81.4577 15.7045C80.9038 14.5871 80.6268 13.2614 80.6268 11.7273C80.6268 10.1932 80.9038 8.86742 81.4577 7.75C82.0117 6.63258 82.7717 5.77083 83.7376 5.16477C84.7035 4.55871 85.8067 4.25568 87.0472 4.25568C88.2878 4.25568 89.391 4.55871 90.3569 5.16477C91.3228 5.77083 92.0827 6.63258 92.6367 7.75C93.1907 8.86742 93.4677 10.1932 93.4677 11.7273ZM91.7631 11.7273C91.7631 10.4678 91.5524 9.40483 91.131 8.53835C90.7144 7.67188 90.1486 7.0161 89.4336 6.57102C88.7234 6.12595 87.9279 5.90341 87.0472 5.90341C86.1665 5.90341 85.3687 6.12595 84.6538 6.57102C83.9435 7.0161 83.3777 7.67188 82.9563 8.53835C82.5397 9.40483 82.3313 10.4678 82.3313 11.7273C82.3313 12.9867 82.5397 14.0497 82.9563 14.9162C83.3777 15.7827 83.9435 16.4384 84.6538 16.8835C85.3687 17.3286 86.1665 17.5511 87.0472 17.5511C87.9279 17.5511 88.7234 17.3286 89.4336 16.8835C90.1486 16.4384 90.7144 15.7827 91.131 14.9162C91.5524 14.0497 91.7631 12.9867 91.7631 11.7273Z" fill="black"/>
</svg>
