<svg width="18" height="18" viewBox="0 0 18 18" fill="none" xmlns="http://www.w3.org/2000/svg">
<path d="M15.9667 17.25L10.1917 11.475C9.73333 11.8417 9.20625 12.1319 8.61042 12.3458C8.01458 12.5597 7.38056 12.6667 6.70833 12.6667C5.04306 12.6667 3.63383 12.0898 2.48067 10.936C1.3275 9.78222 0.750611 8.373 0.75 6.70833C0.75 5.04306 1.32689 3.63383 2.48067 2.48067C3.63444 1.3275 5.04367 0.750611 6.70833 0.75C8.37361 0.75 9.78283 1.32689 10.936 2.48067C12.0892 3.63444 12.6661 5.04367 12.6667 6.70833C12.6667 7.38056 12.5597 8.01458 12.3458 8.61042C12.1319 9.20625 11.8417 9.73333 11.475 10.1917L17.25 15.9667L15.9667 17.25ZM6.70833 10.8333C7.85417 10.8333 8.82828 10.4321 9.63067 9.62975C10.4331 8.82736 10.8339 7.85356 10.8333 6.70833C10.8333 5.5625 10.4321 4.58839 9.62975 3.786C8.82736 2.98361 7.85356 2.58272 6.70833 2.58333C5.5625 2.58333 4.58839 2.98453 3.786 3.78692C2.98361 4.58931 2.58272 5.56311 2.58333 6.70833C2.58333 7.85417 2.98453 8.82828 3.78692 9.63067C4.58931 10.4331 5.56311 10.8339 6.70833 10.8333Z" fill="black"/>
</svg>
