<svg width="20" height="20" viewBox="0 0 20 20" fill="none" xmlns="http://www.w3.org/2000/svg">
<path d="M17.9525 5.92014C17.9647 6.09655 17.9647 6.2728 17.9647 6.45077C17.9647 11.8726 13.837 18.1258 6.28969 18.1258V18.1226C4.06001 18.1258 1.87655 17.4871 0 16.283C0.324219 16.322 0.65 16.3416 0.976562 16.3423C2.82455 16.3438 4.61938 15.724 6.07266 14.5825C5.2164 14.5663 4.3866 14.283 3.69929 13.7721C3.01197 13.2611 2.50149 12.5482 2.23922 11.733C2.85438 11.8517 3.48812 11.8272 4.09188 11.6622C2.1775 11.2755 0.800313 9.59358 0.800313 7.6403V7.58827C1.37099 7.90619 2.00969 8.08233 2.66266 8.10186C0.859375 6.89686 0.303906 4.49827 1.39266 2.62311C2.4228 3.89072 3.70806 4.92745 5.16497 5.66597C6.62188 6.40449 8.21785 6.82829 9.84922 6.90983C9.68661 6.20964 9.71068 5.47903 9.91901 4.79105C10.1274 4.10308 10.5127 3.48186 11.0364 2.98952C12.6891 1.43593 15.2883 1.51561 16.8417 3.16749C17.7607 2.98604 18.6419 2.64912 19.4475 2.17124C19.1412 3.12135 18.5002 3.92786 17.6437 4.44077C18.4571 4.34487 19.2515 4.12706 20 3.79468C19.4493 4.6193 18.756 5.33907 17.9525 5.92014Z" fill="#1D9BF0"/>
</svg>
