<svg width="22" height="27" viewBox="0 0 22 27" fill="none" xmlns="http://www.w3.org/2000/svg">
<path d="M10.074 0.401798L0.249996 11.3998C0.100442 11.5651 0.0128024 11.7771 0.00199598 11.9998C-0.010004 12.2198 0.0579959 12.4198 0.193996 12.5998L10.014 25.5198C10.124 25.6678 10.274 25.7898 10.444 25.8738C10.6173 25.9579 10.8074 26.0015 11 26.0015C11.1926 26.0015 11.3827 25.9579 11.556 25.8738C11.726 25.7917 11.8741 25.6704 11.988 25.5198L21.808 12.5998C21.941 12.4289 22.0084 12.2161 21.998 11.9998C21.9872 11.7771 21.8995 11.5651 21.75 11.3998L11.926 0.401798C11.81 0.27462 11.6682 0.1737 11.51 0.105798C11.2691 0.00210094 11.0022 -0.0251186 10.7454 0.0278215C10.4886 0.0807615 10.2542 0.211306 10.074 0.401798Z" fill="black"/>
</svg>
