<svg width="18" height="19" viewBox="0 0 18 19" fill="none" xmlns="http://www.w3.org/2000/svg">
<g clip-path="url(#clip0_1_47)">
<path d="M8.99369 10.0157C9.52555 10.0157 10.0522 9.91094 10.5436 9.70741C11.0349 9.50388 11.4814 9.20556 11.8575 8.82948C12.2336 8.45341 12.5319 8.00694 12.7354 7.51557C12.9389 7.0242 13.0437 6.49755 13.0437 5.9657C13.0437 5.43385 12.9389 4.9072 12.7354 4.41583C12.5319 3.92446 12.2336 3.478 11.8575 3.10192C11.4814 2.72584 11.0349 2.42752 10.5436 2.22399C10.0522 2.02046 9.52555 1.9157 8.99369 1.9157C7.91957 1.9157 6.88943 2.3424 6.12991 3.10192C5.37039 3.86144 4.94369 4.89157 4.94369 5.9657C4.94369 7.03983 5.37039 8.06996 6.12991 8.82948C6.88943 9.589 7.91957 10.0157 8.99369 10.0157ZM8.99999 0.5C10.1855 0.499614 11.3381 0.889348 12.2802 1.60907C13.2222 2.32879 13.9011 3.3385 14.2124 4.4824C14.5236 5.62631 14.4497 6.84084 14.0022 7.9386C13.5546 9.03636 12.7583 9.95634 11.736 10.5566C15.0552 11.5556 17.5482 14.3528 17.9955 17.8268C18.0378 18.1571 17.7921 18.4568 17.4465 18.4973C17.1018 18.5378 16.7868 18.3038 16.7445 17.9735C16.2585 14.2025 12.9924 11.363 9.03149 11.363C5.04899 11.363 1.74059 14.2079 1.25549 17.9735C1.21319 18.3038 0.898193 18.5378 0.553493 18.4973C0.207893 18.4568 -0.0378072 18.1571 0.00449278 17.8268C0.450893 14.3672 2.95739 11.5736 6.28199 10.5656C5.25661 9.96806 4.45663 9.04937 4.00575 7.95158C3.55486 6.85378 3.47818 5.63801 3.78757 4.49227C4.09695 3.34652 4.77517 2.3346 5.71735 1.61297C6.65954 0.891336 7.81321 0.500188 8.99999 0.5Z" fill="black"/>
</g>
<defs>
<clipPath id="clip0_1_47">
<rect width="18" height="18" fill="white" transform="translate(0 0.5)"/>
</clipPath>
</defs>
</svg>
