<svg width="21" height="15" viewBox="0 0 21 15" fill="none" xmlns="http://www.w3.org/2000/svg">
<g id="logos:youtube-icon" clip-path="url(#clip0_457_242)">
<path id="Vector" d="M20.5362 2.33958C20.4158 1.88738 20.1808 1.47512 19.8547 1.14386C19.5287 0.812593 19.1228 0.573884 18.6777 0.4515C17.0481 0 10.4894 0 10.4894 0C10.4894 0 3.9303 0.0136666 2.30066 0.465167C1.85552 0.587558 1.44971 0.82628 1.12363 1.15756C0.79756 1.48884 0.562604 1.90111 0.442164 2.35333C-0.0507616 5.29483 -0.241976 9.777 0.455699 12.6008C0.576152 13.053 0.811113 13.4653 1.13719 13.7966C1.46326 14.1278 1.86907 14.3665 2.3142 14.4889C3.94383 14.9404 10.5027 14.9404 10.5027 14.9404C10.5027 14.9404 17.0615 14.9404 18.6911 14.4889C19.1362 14.3665 19.5421 14.1278 19.8681 13.7966C20.1942 13.4653 20.4292 13.053 20.5497 12.6008C21.0696 9.65517 21.2298 5.17575 20.5362 2.33958Z" fill="#FF0000"/>
<path id="Vector_2" d="M8.40172 10.6716L13.8427 7.47005L8.40172 4.26855V10.6716Z" fill="white"/>
</g>
<defs>
<clipPath id="clip0_457_242">
<rect width="21" height="15" fill="white"/>
</clipPath>
</defs>
</svg>
